<svg width="142" height="58" viewBox="0 0 142 58" fill="none" xmlns="http://www.w3.org/2000/svg">
<g filter="url(#filter0_dddddd_1260_16195)">
<path d="M44.8176 32.3941C44.7566 32.6345 44.6348 32.6345 44.5739 32.3339C44.3302 31.0715 43.5382 29.6888 41.6496 29.0275C41.5887 29.0275 41.5278 29.0876 41.5278 29.1477C41.7105 29.4483 41.9542 29.9894 41.9542 30.7108C41.8933 32.3941 41.0404 33.4161 40.6139 33.8369C40.4921 33.9571 40.3703 33.897 40.4312 33.7167C40.4921 31.6726 38.6644 30.7709 38.3598 29.6286C38.2989 29.5084 38.238 29.5084 38.1771 29.6888C37.1414 37.0832 31.4147 46.4616 19.5959 41.7123C19.4741 41.6522 19.4131 41.5921 19.6568 41.5921C32.5113 42.1933 31.7803 30.0495 24.4697 24.8192C24.4087 24.7591 24.2869 24.7591 24.2869 24.8793C24.226 26.6829 22.3983 27.3442 24.226 31.0715C24.2869 31.1316 24.226 31.1917 24.165 31.1917C20.266 30.4703 19.1695 27.6448 19.535 25.4204C19.535 25.3603 19.4741 25.3002 19.4131 25.3603C17.0372 27.2841 16.6717 29.7489 18.2556 32.2738C18.3165 32.3339 18.1947 32.4542 18.1338 32.3941C13.3819 29.0876 14.844 23.5567 17.22 22.2342C19.2913 21.0318 20.6316 21.9336 20.8143 22.0538C20.9362 22.1139 21.058 21.9937 20.9362 21.8735C20.6925 21.152 20.0833 19.8896 20.5707 18.6271C22.2765 13.8778 29.7699 14.1784 32.2067 17.3045C32.2677 17.3646 32.2067 17.4849 32.0849 17.4247C27.7594 16.2224 24.2869 19.4086 23.7386 19.8896C23.4949 20.0699 23.5558 20.1902 23.8604 20.0699C28.856 18.8676 29.648 22.4145 32.2677 22.4145C32.4504 22.4145 32.5113 22.5347 32.3286 22.655C29.2825 24.9996 26.1145 24.218 25.2616 23.7972C25.0179 23.677 24.957 23.8573 25.2007 24.0377C35.3137 31.2518 30.5618 40.51 27.8813 41.1111C33.6689 39.6683 36.1667 33.5964 37.2023 29.6888C37.2632 29.5084 37.2023 29.5084 37.0805 29.6286C36.654 30.0495 36.1057 30.7709 35.9839 30.8911C34.5827 32.2137 33.1206 32.1536 32.4504 32.0334C32.2677 31.9732 32.2067 31.9131 32.3895 31.7929C34.2172 30.7709 33.7907 27.8251 35.862 27.4043C35.9839 27.4043 35.9839 27.2841 35.923 27.2239C35.5574 26.8031 33.4252 26.1418 31.5366 27.7049C31.4147 27.8251 31.2929 27.765 31.3538 27.5846C31.4147 26.9835 31.6584 25.6008 33.4252 24.7591C35.1919 23.9175 36.8368 24.3383 37.8725 25.4805C38.5426 26.262 38.5426 26.9233 38.5426 27.1037C38.6035 27.2841 38.7254 27.2841 38.8472 27.2239C39.1518 27.0436 39.6392 26.6829 40.3703 26.5025C43.0508 25.9615 45.7314 29.6286 44.8176 32.3941Z" fill="url(#paint0_linear_1260_16195)"/>
</g>
<path d="M54.2615 38.0621H49.6223C49.4526 38.0621 49.1132 38.0621 49.1132 37.76C49.1132 37.6392 49.1697 37.458 49.396 37.458C49.4526 37.458 49.5092 37.458 49.6223 37.458C49.8486 37.458 50.0184 37.3976 50.1881 37.3976C50.5275 37.3371 50.867 37.2767 50.867 36.0684V26.8855C50.867 23.2002 50.867 22.5357 50.8104 21.8107C50.7538 20.9649 50.5841 20.7232 49.9618 20.6024C49.7921 20.542 49.5092 20.542 49.2829 20.542C49.0566 20.542 49 20.3608 49 20.2399C49 19.9379 49.2829 19.9379 49.4526 19.9379H54.7141C57.5428 19.9379 58.5612 20.9649 58.9006 21.3274C59.4664 21.9315 60.0322 23.019 60.0322 24.2273C60.0322 27.6105 57.7126 29.9666 54.4312 29.9666C54.3746 29.9666 54.1483 29.9666 53.9786 29.9666C53.8655 29.9666 53.6392 29.9062 53.6392 29.6645C53.6392 29.3021 53.922 29.3021 54.3746 29.3021C56.4679 29.3021 58.052 27.6709 58.052 25.5564C58.052 25.0127 58.052 23.3211 56.8639 21.9919C55.9022 20.9649 54.8838 20.8441 54.1483 20.8441C54.0918 20.8441 54.0352 20.8441 54.0352 20.8441H53.922C53.526 20.8441 53.1866 20.9045 53.0168 20.9649C52.9037 21.0253 52.9037 21.1461 52.9037 21.267V35.9476C52.9037 37.1559 53.0734 37.1559 53.6392 37.2767C53.8655 37.3371 53.9786 37.3371 54.1483 37.3371L54.3181 37.3976C54.5444 37.458 54.6009 37.5788 54.6009 37.6996C54.6575 38.0017 54.4312 38.0621 54.2615 38.0621Z" fill="#E6F1FF"/>
<path d="M70.5994 36.4257H67.3457C67.2295 36.4257 66.9971 36.4257 66.9971 36.1867C66.9971 36.0672 66.9971 36.0075 67.0552 36.0075C67.1133 35.8879 67.2876 35.8879 67.4619 35.8879C67.52 35.8879 67.5781 35.8879 67.6362 35.8879C67.6362 35.8879 67.6943 35.8282 67.6362 35.7087L66.1836 32.0637H62.4651C62.4651 32.0637 62.4651 32.0637 62.407 32.1234C62.407 32.1234 61.6517 34.2746 61.4774 34.6929C61.3031 35.1111 61.245 35.4697 61.245 35.7087C61.245 35.9477 61.5355 36.0075 61.6517 36.0075H61.826C62.0003 36.0075 62.1165 36.127 62.1165 36.2465C62.1165 36.3062 62.0584 36.4855 61.7679 36.4855H58.8628C58.7466 36.4855 58.4561 36.4855 58.4561 36.2465C58.4561 36.127 58.5723 36.0075 58.6885 36.0075C58.7466 36.0075 58.8047 36.0075 58.8628 36.0075C58.9209 36.0075 58.9209 36.0075 58.979 36.0075C59.6181 35.9477 59.9086 35.4697 60.2572 34.6331L64.0339 24.5944C64.2082 24.1163 64.3244 23.8773 64.5568 23.8773C64.7892 23.8773 64.8473 24.0566 64.9635 24.3554C64.9635 24.4151 65.0216 24.4749 65.0216 24.5346C65.1378 24.8931 65.835 26.5663 66.6485 28.5979C67.4619 30.6893 68.3915 33.0197 68.9144 34.2746C69.4955 35.7087 69.9022 35.8879 70.1927 35.9477C70.4251 36.0075 70.5994 36.0075 70.7156 36.0075C70.8899 36.0075 71.0642 36.127 71.0642 36.3062C71.0642 36.3062 70.948 36.4257 70.5994 36.4257ZM62.7556 30.9881H65.835L64.2663 26.6858C64.2663 26.6858 64.2663 26.6858 64.2663 26.626C64.2663 26.626 64.2663 26.626 64.2663 26.6858C64.2082 26.865 62.988 30.4503 62.7556 30.9881Z" fill="#E6F1FF"/>
<path d="M78.3154 36.4855H72.3061C71.9659 36.4855 71.9659 36.3036 71.9659 36.1824C71.9659 36.0612 72.0793 35.9399 72.2494 35.9399C72.4195 35.9399 72.5328 35.8793 72.7029 35.8793C72.9297 35.8187 72.9297 35.6369 72.9864 35.1519V35.0913C73.0998 34.4245 73.0997 33.1516 73.0997 31.5756V28.7266C73.0997 26.1807 73.0997 25.7564 73.0431 25.2715C72.9864 24.7259 72.9297 24.5441 72.5328 24.4835C72.0226 24.4229 71.9092 24.4229 71.8525 24.1804C71.8525 24.1198 71.8525 24.0592 71.9092 23.9986C71.9659 23.9379 72.136 23.8773 72.2494 23.8773H75.5375C75.7076 23.8773 75.8209 23.9379 75.8776 23.9986C75.9343 24.0592 75.9343 24.1198 75.9343 24.1804C75.9343 24.4229 75.7642 24.4229 75.254 24.4835C74.9139 24.5441 74.8005 24.6653 74.8005 25.2715C74.8005 25.7564 74.8005 26.2414 74.8005 28.7266V31.6362C74.8005 33.6365 74.8005 34.9095 75.0839 35.2126C75.3107 35.455 75.9343 35.5762 77.0681 35.5762C77.9185 35.5762 78.5421 35.5156 78.8823 35.1519C79.0524 34.9701 79.1657 34.6064 79.2224 34.3033C79.2791 34.1215 79.3925 34.0002 79.5059 34.0002C79.6193 34.0002 79.7326 34.0608 79.7326 34.3639C79.7326 34.5458 79.6193 35.5156 79.5059 36.0006C79.2791 36.4249 79.1657 36.4855 78.3154 36.4855Z" fill="#E6F1FF"/>
<path d="M83.9705 36.4855H80.9298C80.6375 36.4855 80.5205 36.3665 80.5205 36.1881C80.5205 36.0692 80.579 35.9502 80.8129 35.9502C80.9298 35.9502 81.0468 35.9502 81.2807 35.8908C81.69 35.8313 81.7485 35.4745 81.8069 34.8797V34.7013L83.0349 24.2936C83.0349 24.0557 83.2103 23.8773 83.3857 23.8773C83.5027 23.8773 83.7366 23.9368 83.8535 24.1747L88.9408 33.8687L93.7942 24.2342C93.8526 24.1152 93.9696 23.8773 94.2035 23.8773C94.3204 23.8773 94.5543 23.9368 94.6128 24.4126L95.8992 35.3555C95.9577 35.7123 95.9577 35.7718 96.367 35.8313C96.484 35.8313 96.5425 35.8313 96.6009 35.8908C96.7764 35.8908 96.9518 35.9502 97.0103 36.0097C97.0103 36.0692 97.0687 36.0692 97.0687 36.1881C97.0687 36.426 96.7764 36.426 96.6009 36.426H93.4433C93.2094 36.426 93.151 36.3071 93.151 36.1881C93.151 36.0692 93.2094 35.8908 93.3849 35.8908C93.9696 35.8313 94.0865 35.7718 94.0281 35.415L93.3264 27.743L89.3501 35.5339C88.9993 36.2476 88.8823 36.426 88.6484 36.426C88.4145 36.426 88.2976 36.1881 87.9467 35.6529C87.5374 34.9392 86.3679 32.8577 85.9586 31.9656C85.7832 31.6682 85.5493 31.133 85.2569 30.5977C84.7307 29.5867 84.2044 28.5162 83.912 27.9214L83.2688 34.7608C83.2688 34.9987 83.2688 35.296 83.2688 35.5339C83.2688 35.7123 83.3858 35.8313 83.5612 35.8313C83.7951 35.8908 83.9705 35.8908 84.0874 35.8908C84.1459 35.8908 84.1459 35.8908 84.2044 35.8908C84.3798 35.8908 84.4383 36.0097 84.4383 36.1287C84.4383 36.4855 84.1459 36.4855 83.9705 36.4855Z" fill="#E6F1FF"/>
<path d="M100.621 37.2735C100.14 37.2735 98.9984 37.2109 98.157 36.8353C97.8564 36.7101 97.8564 36.5223 97.8564 36.0841C97.8564 35.1451 97.9165 34.4565 97.9165 34.3314C97.9165 34.2062 97.9766 33.8932 98.2171 33.8932C98.3373 33.8932 98.5176 33.9558 98.5176 34.2062C98.5176 34.3314 98.5176 34.5817 98.5777 34.7695C98.8782 36.2093 100.561 36.3345 101.102 36.3345C102.544 36.3345 103.446 35.5207 103.446 34.2688C103.446 33.142 102.905 32.6412 101.402 31.4518L100.621 30.8884C98.8782 29.5112 98.157 28.447 98.157 27.1951C98.157 25.1919 99.6595 23.8773 102.004 23.8773C102.725 23.8773 103.386 24.0025 103.746 24.0651C104.047 24.1277 104.167 24.1277 104.287 24.1277C104.348 24.1277 104.588 24.1277 104.588 24.3781C104.588 24.3781 104.588 24.4407 104.588 24.5659C104.588 24.8163 104.528 25.3171 104.528 26.1935C104.528 26.4439 104.528 26.6943 104.287 26.6943C104.047 26.6943 104.047 26.5065 103.987 26.3813C103.927 26.0057 103.867 25.7553 103.746 25.5675C103.746 25.5675 103.326 24.8163 101.703 24.8163C100.741 24.8163 99.5994 25.2545 99.5994 26.5065C99.5994 27.5081 100.02 28.0715 101.703 29.1982L102.184 29.5112C104.167 30.8884 104.949 32.1404 104.949 33.6428C104.949 34.8947 104.408 35.8963 103.326 36.6475C102.725 37.0857 101.823 37.2735 100.621 37.2735Z" fill="#E6F1FF"/>
<path d="M115.615 38.0621H110.362C110.076 38.0621 109.962 37.8821 109.962 37.762C109.962 37.642 110.019 37.462 110.248 37.462C110.362 37.462 110.476 37.402 110.59 37.402C110.705 37.402 110.819 37.402 110.933 37.3419C111.276 37.2819 111.39 36.8618 111.504 36.1417C111.618 35.1814 111.618 33.261 111.618 31.0405V26.8995C111.618 23.2386 111.618 22.5785 111.561 21.7983C111.504 20.9581 111.333 20.718 110.705 20.598C110.59 20.598 110.419 20.538 109.962 20.538C109.791 20.538 109.677 20.418 109.677 20.2379C109.677 19.9379 110.019 19.9379 110.134 19.9379H115.159C119.555 19.9379 119.784 23.2386 119.784 23.5987C119.841 25.9993 118.642 27.2596 117.899 27.7397C119.498 28.0998 121.497 30.1403 121.497 32.7809C121.44 35.3615 119.613 38.0621 115.615 38.0621ZM113.617 28.5799V29.9602C113.617 31.7006 113.617 34.7013 113.617 35.0614V35.1814C113.674 36.2617 113.674 36.5017 114.302 36.8018C114.93 37.1019 116.015 37.1619 116.244 37.1619C117.614 37.1619 119.27 36.3217 119.27 33.9812C119.27 33.0809 119.042 30.7404 117.157 29.3601C116.415 28.8199 115.901 28.7599 115.387 28.6999C115.159 28.6399 114.53 28.5799 113.617 28.5799ZM113.674 27.6197C113.845 27.6197 114.188 27.6797 114.987 27.6797C116.244 27.6797 116.472 27.6197 116.929 27.1396C117.443 26.5394 117.728 25.6992 117.728 24.859C117.728 23.0586 116.986 20.9581 114.816 20.9581C114.53 20.9581 114.074 20.9581 113.788 21.0781C113.617 21.1381 113.617 21.1381 113.617 21.1982V27.4996C113.617 27.5597 113.617 27.5597 113.674 27.6197Z" fill="#E6F1FF"/>
<path d="M129.521 36.4855H129.401H123.551C123.252 36.4855 123.133 36.3637 123.133 36.1809C123.133 36.0591 123.252 35.9373 123.372 35.9373C123.491 35.9373 123.551 35.8764 123.67 35.8764C123.73 35.8764 123.79 35.8764 123.909 35.8155H123.969C124.208 35.7546 124.327 35.6937 124.327 34.2928V26.9837C124.327 24.5473 124.207 24.5473 123.73 24.4864C123.611 24.4864 123.431 24.4864 123.312 24.4255C123.133 24.4255 123.073 24.3037 123.073 24.1819C123.073 23.9991 123.193 23.9382 123.372 23.9382C123.909 23.9382 128.625 23.9991 129.162 23.9991C129.461 23.9991 129.7 23.9382 129.819 23.9382H129.879C129.938 23.8773 130.058 23.8773 130.118 23.8773C130.237 23.8773 130.356 23.9382 130.356 24.1819C130.356 24.3037 130.177 25.8264 130.118 26.0091C130.058 26.2528 129.998 26.3137 129.819 26.3137C129.759 26.3137 129.58 26.3137 129.58 25.9482C129.58 25.8264 129.58 25.5828 129.521 25.4C129.461 25.2173 129.342 25.0346 128.446 24.9737C128.207 24.9737 126.357 24.9128 126.237 24.9128C126.118 24.9128 126.118 24.9737 126.118 25.0346V29.3591C126.118 29.3591 126.118 29.3591 126.118 29.42C126.595 29.42 128.446 29.42 128.804 29.3591H128.864C129.222 29.2982 129.401 29.2982 129.58 29.1764L129.64 29.1155C129.759 28.9937 129.819 28.9328 129.938 28.9328C130.058 28.9328 130.177 28.9937 130.177 29.1764C130.177 29.2373 130.177 29.2982 130.177 29.3591C130.118 29.481 130.118 29.7246 130.058 30.09C129.998 30.3946 129.998 31.1864 129.998 31.2473C129.998 31.491 129.819 31.5519 129.759 31.5519C129.58 31.5519 129.521 31.43 129.521 31.2473C129.521 31.1255 129.521 30.9428 129.461 30.76C129.401 30.6382 129.401 30.4555 128.745 30.3337C128.327 30.2728 126.655 30.2728 126.297 30.2728V31.6128C126.297 31.7955 126.297 32.0391 126.297 32.3437C126.297 33.1355 126.297 34.1709 126.297 34.3537C126.357 35.3282 126.476 35.5109 128.148 35.5109C128.565 35.5109 129.342 35.5109 129.759 35.3282C130.118 35.1455 130.297 34.9019 130.416 34.2928C130.416 34.1709 130.476 33.9273 130.715 33.9882C130.774 33.9882 130.953 34.0491 130.953 34.3537C130.953 34.5364 130.834 35.5719 130.715 35.9373C130.297 36.4855 130.058 36.4855 129.521 36.4855Z" fill="#E6F1FF"/>
<path d="M137.82 36.4855H134.387C134.274 36.4855 133.993 36.4855 133.993 36.243C133.993 36.1218 134.049 36.0006 134.218 36.0006C134.443 36.0006 134.724 35.9399 134.837 35.8793C135.062 35.8187 135.231 35.7581 135.231 34.5458V25.0896H133.148C132.304 25.0896 131.91 25.2109 131.685 25.5746C131.572 25.817 131.516 25.8777 131.46 25.9989V26.0595C131.403 26.1807 131.347 26.302 131.178 26.302C131.066 26.302 130.953 26.1807 130.953 26.0595C130.953 25.9383 131.066 25.4533 131.291 24.4229L131.347 24.241C131.403 24.1198 131.403 23.8773 131.629 23.8773C131.685 23.8773 131.741 23.8773 131.797 23.9379C131.91 23.9986 132.079 24.0592 132.304 24.0592C132.754 24.1198 133.317 24.1198 133.486 24.1198H138.721C138.89 24.1198 139.452 24.1198 139.903 24.0592C140.128 23.9986 140.297 23.9379 140.409 23.9379C140.466 23.9379 140.522 23.8773 140.578 23.8773C140.803 23.8773 140.86 24.1804 140.86 24.3016C140.86 24.3016 140.86 24.4229 140.916 24.5441C141.085 25.3927 141.197 25.9383 141.197 26.0595C141.197 26.2414 141.085 26.302 140.972 26.302C140.86 26.302 140.747 26.2414 140.691 26.0595C140.634 25.9383 140.634 25.8777 140.466 25.6352C140.24 25.3321 139.846 25.1503 139.002 25.1503H136.863V34.6064C136.863 35.8793 136.919 35.8793 137.426 35.9399H137.482C137.82 36.0006 138.045 36.0006 138.045 36.243C138.045 36.3036 138.045 36.3643 137.989 36.4249C138.045 36.4249 137.933 36.4855 137.82 36.4855Z" fill="#E6F1FF"/>
<defs>
<filter id="filter0_dddddd_1260_16195" x="0.0816002" y="0.0816002" width="59.8368" height="57.8368" filterUnits="userSpaceOnUse" color-interpolation-filters="sRGB">
<feFlood flood-opacity="0" result="BackgroundImageFix"/>
<feColorMatrix in="SourceAlpha" type="matrix" values="0 0 0 0 0 0 0 0 0 0 0 0 0 0 0 0 0 0 127 0" result="hardAlpha"/>
<feOffset/>
<feGaussianBlur stdDeviation="0.1776"/>
<feColorMatrix type="matrix" values="0 0 0 0 0.6 0 0 0 0 0.4 0 0 0 0 0.2 0 0 0 1 0"/>
<feBlend mode="normal" in2="BackgroundImageFix" result="effect1_dropShadow_1260_16195"/>
<feColorMatrix in="SourceAlpha" type="matrix" values="0 0 0 0 0 0 0 0 0 0 0 0 0 0 0 0 0 0 127 0" result="hardAlpha"/>
<feOffset/>
<feGaussianBlur stdDeviation="0.3552"/>
<feColorMatrix type="matrix" values="0 0 0 0 0.6 0 0 0 0 0.4 0 0 0 0 0.2 0 0 0 1 0"/>
<feBlend mode="normal" in2="effect1_dropShadow_1260_16195" result="effect2_dropShadow_1260_16195"/>
<feColorMatrix in="SourceAlpha" type="matrix" values="0 0 0 0 0 0 0 0 0 0 0 0 0 0 0 0 0 0 127 0" result="hardAlpha"/>
<feOffset/>
<feGaussianBlur stdDeviation="1.2432"/>
<feColorMatrix type="matrix" values="0 0 0 0 0.6 0 0 0 0 0.4 0 0 0 0 0.2 0 0 0 1 0"/>
<feBlend mode="normal" in2="effect2_dropShadow_1260_16195" result="effect3_dropShadow_1260_16195"/>
<feColorMatrix in="SourceAlpha" type="matrix" values="0 0 0 0 0 0 0 0 0 0 0 0 0 0 0 0 0 0 127 0" result="hardAlpha"/>
<feOffset/>
<feGaussianBlur stdDeviation="2.4864"/>
<feColorMatrix type="matrix" values="0 0 0 0 0.6 0 0 0 0 0.4 0 0 0 0 0.2 0 0 0 1 0"/>
<feBlend mode="normal" in2="effect3_dropShadow_1260_16195" result="effect4_dropShadow_1260_16195"/>
<feColorMatrix in="SourceAlpha" type="matrix" values="0 0 0 0 0 0 0 0 0 0 0 0 0 0 0 0 0 0 127 0" result="hardAlpha"/>
<feOffset/>
<feGaussianBlur stdDeviation="4.2624"/>
<feColorMatrix type="matrix" values="0 0 0 0 0.6 0 0 0 0 0.4 0 0 0 0 0.2 0 0 0 1 0"/>
<feBlend mode="normal" in2="effect4_dropShadow_1260_16195" result="effect5_dropShadow_1260_16195"/>
<feColorMatrix in="SourceAlpha" type="matrix" values="0 0 0 0 0 0 0 0 0 0 0 0 0 0 0 0 0 0 127 0" result="hardAlpha"/>
<feOffset/>
<feGaussianBlur stdDeviation="7.4592"/>
<feColorMatrix type="matrix" values="0 0 0 0 0.6 0 0 0 0 0.4 0 0 0 0 0.2 0 0 0 1 0"/>
<feBlend mode="normal" in2="effect5_dropShadow_1260_16195" result="effect6_dropShadow_1260_16195"/>
<feBlend mode="normal" in="SourceGraphic" in2="effect6_dropShadow_1260_16195" result="shape"/>
</filter>
<linearGradient id="paint0_linear_1260_16195" x1="22.6152" y1="41.1512" x2="39.4765" y2="26.2003" gradientUnits="userSpaceOnUse">
<stop offset="0.183312" stop-color="#FFD261"/>
<stop offset="0.5" stop-color="#FFF28F"/>
<stop offset="1" stop-color="#FFBE41"/>
</linearGradient>
</defs>
</svg>
